<?xml version="1.0" encoding="UTF-8" standalone="no"?>
<!-- Created with Inkscape (http://www.inkscape.org/) -->

<svg
   width="82.393753mm"
   height="46.462009mm"
   viewBox="0 0 82.393753 46.462009"
   version="1.1"
   id="svg1"
   inkscape:version="1.3 (0e150ed, 2023-07-21)"
   sodipodi:docname="busy-bee-inverted.svg"
   xmlns:inkscape="http://www.inkscape.org/namespaces/inkscape"
   xmlns:sodipodi="http://sodipodi.sourceforge.net/DTD/sodipodi-0.dtd"
   xmlns="http://www.w3.org/2000/svg"
   xmlns:svg="http://www.w3.org/2000/svg">
  <sodipodi:namedview
     id="namedview1"
     pagecolor="#ffffff"
     bordercolor="#000000"
     borderopacity="0.25"
     inkscape:showpageshadow="2"
     inkscape:pageopacity="0.0"
     inkscape:pagecheckerboard="0"
     inkscape:deskcolor="#d1d1d1"
     inkscape:document-units="mm"
     inkscape:zoom="1.8880066"
     inkscape:cx="144.59695"
     inkscape:cy="100.90007"
     inkscape:window-width="1592"
     inkscape:window-height="984"
     inkscape:window-x="0"
     inkscape:window-y="38"
     inkscape:window-maximized="0"
     inkscape:current-layer="layer1" />
  <defs
     id="defs1" />
  <g
     inkscape:groupmode="layer"
     id="layer2"
     inkscape:label="Layer 2"
     style="display:none">
    <rect
       style="fill:#000000;fill-opacity:1;stroke:#fcfcfc;stroke-width:1.565;stroke-linecap:round;stroke-dashoffset:1.71213;stroke-opacity:1"
       id="rect1"
       width="87.111206"
       height="58.074131"
       x="-2.7303116"
       y="-3.4048648" />
  </g>
  <g
     inkscape:label="Layer 1"
     inkscape:groupmode="layer"
     id="layer1"
     transform="translate(-28.485161,-20.344568)">
    <path
       style="display:inline;fill:#1e1e1e;fill-opacity:0;stroke:#ffffff;stroke-width:4.806;stroke-linecap:round;stroke-linejoin:miter;stroke-dasharray:none;stroke-dashoffset:1.71213;stroke-opacity:1"
       d="M 91.740483,32.926846 C 91.223401,28.124795 88.314819,27.333867 88.314819,27.333867"
       id="path8" />
    <path
       style="fill:#e8e8e8;fill-opacity:1;stroke:#ffffff;stroke-width:3.165;stroke-linecap:round;stroke-linejoin:miter;stroke-dasharray:none;stroke-dashoffset:1.71213;stroke-opacity:1"
       d="M 89.498444,40.487551 C 81.319318,25.6807 73.557028,21.246412 70.372221,30.449204 64.76322,46.656926 88.788287,40.473573 88.788287,40.473573 Z"
       id="path7-1"
       sodipodi:nodetypes="cscc" />
    <path
       style="fill:#e8e8e8;fill-opacity:1;stroke:#ffffff;stroke-width:1.565;stroke-linecap:round;stroke-linejoin:miter;stroke-dasharray:none;stroke-dashoffset:1.71213;stroke-opacity:1"
       d="M 94.912106,41.478876 C 109.07687,32.232243 112.92789,24.164668 103.51567,21.66576 86.939114,17.264748 94.873783,40.769613 94.873783,40.769613 Z"
       id="path7-4"
       sodipodi:nodetypes="cscc"
       inkscape:export-filename="busy-bee.svg"
       inkscape:export-xdpi="96"
       inkscape:export-ydpi="96" />
    <path
       style="fill:#ffffff;fill-opacity:0;stroke:#ffffff;stroke-width:2.265;stroke-linecap:square;stroke-linejoin:round;stroke-dasharray:2.265, 9.06;stroke-dashoffset:0.453;stroke-opacity:1"
       d="m 29.617707,44.295509 c 0,0 -0.262105,17.298837 19.133563,17.298837 19.395667,0 23.589323,-30.141913 4.45576,-30.141913 -19.133563,0 -16.77463,34.335572 11.794662,34.335572 10.222041,0 14.677803,-8.911524 14.677803,-8.911524"
       id="path1"
       sodipodi:nodetypes="csssc" />
    <ellipse
       style="fill:#ffe203;fill-opacity:1;stroke:#ffffff;stroke-width:1.75606;stroke-linecap:square;stroke-linejoin:round;stroke-dasharray:none;stroke-dashoffset:0.453001;stroke-opacity:1"
       id="path2"
       cx="66.421112"
       cy="83.350601"
       rx="18.295341"
       ry="13.497396"
       transform="matrix(0.89431797,-0.44743197,0.40051409,0.9162906,0,0)" />
    <path
       style="fill:#000000;fill-opacity:1;stroke:#000000;stroke-width:2.24343;stroke-linecap:square;stroke-linejoin:miter;stroke-dasharray:none;stroke-dashoffset:1.71213;stroke-opacity:1"
       d="m 78.611286,44.505118 c 0,0 -0.789322,6.118191 2.103538,9.61165 4.197258,5.068671 11.253057,6.303695 11.253057,6.303695 0,0 -7.208434,3.245652 -12.83071,-4.38133 -4.810213,-6.525362 -0.525885,-11.534015 -0.525885,-11.534015 z"
       id="path3"
       sodipodi:nodetypes="cscsc"
       inkscape:label="path3" />
    <path
       style="fill:#000000;fill-opacity:1;stroke:#000000;stroke-width:2.265;stroke-linecap:square;stroke-linejoin:miter;stroke-dasharray:none;stroke-dashoffset:1.71213;stroke-opacity:1"
       d="m 87.092313,50.332949 c 10.311264,9.612196 13.690097,6.29162 13.690097,6.29162 l 3.08755,-3.145812 c 0,0 -6.815916,0.990349 -12.175445,-6.175105 -5.359527,-7.165456 -2.621506,-12.40847 -2.621506,-12.40847 l -3.786624,2.330229 c 0,0 -2.738019,6.349873 1.805928,13.107538 z"
       id="path4"
       sodipodi:nodetypes="cccsccc" />
    <ellipse
       style="fill:#ffe203;fill-opacity:0;stroke:#ffffff;stroke-width:1.75606;stroke-linecap:square;stroke-linejoin:round;stroke-dasharray:none;stroke-dashoffset:0.453001;stroke-opacity:1"
       id="path2-0"
       cx="66.421112"
       cy="83.350601"
       rx="18.295341"
       ry="13.497396"
       transform="matrix(0.89431797,-0.44743198,0.40051408,0.91629061,2.7083334e-7,1.1458334e-7)" />
    <ellipse
       style="fill:#000000;fill-opacity:1;stroke:#000000;stroke-width:2.265;stroke-linecap:square;stroke-linejoin:miter;stroke-dasharray:none;stroke-dashoffset:1.71213;stroke-opacity:1"
       id="path5"
       cx="96.643379"
       cy="38.981697"
       rx="1.0486031"
       ry="0.69906878" />
    <ellipse
       style="fill:#000000;fill-opacity:1;stroke:#000000;stroke-width:2.265;stroke-linecap:square;stroke-linejoin:miter;stroke-dasharray:none;stroke-dashoffset:1.71213;stroke-opacity:1"
       id="path5-4"
       cx="102.30238"
       cy="37.272522"
       rx="1.0486031"
       ry="0.69906878" />
    <path
       style="fill:#ffffff;fill-opacity:0;stroke:#000000;stroke-width:2.265;stroke-linecap:round;stroke-linejoin:miter;stroke-dasharray:none;stroke-dashoffset:1.71213;stroke-opacity:1"
       d="m 95.769546,44.166456 c 9.527744,5.640716 10.676234,-2.924723 10.660794,-2.971043"
       id="path6"
       sodipodi:nodetypes="cc" />
    <path
       style="fill:#e8e8e8;fill-opacity:1;stroke:#ffffff;stroke-width:1.565;stroke-linecap:round;stroke-linejoin:miter;stroke-dasharray:none;stroke-dashoffset:1.71213;stroke-opacity:0"
       d="M 89.498445,40.487551 C 81.319318,25.6807 73.557028,21.246412 70.372221,30.449204 64.76322,46.656926 88.788287,40.473573 88.788287,40.473573 Z"
       id="path7"
       sodipodi:nodetypes="cscc" />
    <ellipse
       style="fill:#ffffff;fill-opacity:1;stroke:#ffffff;stroke-width:2.919;stroke-linecap:round;stroke-linejoin:miter;stroke-dasharray:none;stroke-dashoffset:1.71213;stroke-opacity:1"
       id="path9"
       cx="86.910332"
       cy="25.962458"
       rx="2.5200725"
       ry="2.4055238" />
    <ellipse
       style="fill:#000000;fill-opacity:1;stroke:#ffffff;stroke-width:1.019;stroke-linecap:round;stroke-linejoin:miter;stroke-dasharray:none;stroke-dashoffset:1.71213;stroke-opacity:0"
       id="path9-8"
       cx="86.910332"
       cy="25.962458"
       rx="2.5200725"
       ry="2.4055238" />
    <ellipse
       style="fill:#000000;fill-opacity:1;stroke:#000000;stroke-width:1.565;stroke-linecap:round;stroke-linejoin:miter;stroke-dasharray:none;stroke-dashoffset:1.71213;stroke-opacity:1"
       id="path9-1"
       cx="104.38479"
       cy="28.359255"
       rx="1.5057025"
       ry="1.4372615" />
    <path
       style="fill:#6f6f6f;fill-opacity:0;stroke:#000000;stroke-width:1.66625;stroke-linecap:round;stroke-linejoin:miter;stroke-dasharray:none;stroke-dashoffset:1.71213;stroke-opacity:1"
       d="M 99.632375,32.269909 C 99.565519,26.55152 103.9112,28.13996 103.9112,28.13996"
       id="path10" />
    <path
       style="display:inline;fill:#1e1e1e;fill-opacity:0;stroke:#000000;stroke-width:1.8802;stroke-linecap:round;stroke-linejoin:miter;stroke-dasharray:none;stroke-dashoffset:1.71213;stroke-opacity:1"
       d="M 92.335128,34.922881 C 91.665952,28.052487 87.901842,26.92089 87.901842,26.92089"
       id="path8-9" />
  </g>
</svg>
