<?xml version="1.0" encoding="UTF-8" standalone="no"?>
<!DOCTYPE svg PUBLIC "-//W3C//DTD SVG 1.1//EN" "http://www.w3.org/Graphics/SVG/1.1/DTD/svg11.dtd">
<svg version="1.1" xmlns="http://www.w3.org/2000/svg" xmlns:xlink="http://www.w3.org/1999/xlink" preserveAspectRatio="xMidYMid meet" viewBox="294 317.25283865267255 49 44" width="45" height="40"><defs><path d="M328.75 318.25C334.96 318.25 340 323.63 340 330.26C340 348.63 317.5 357.75 317.5 358.25C317.5 358.25 317.5 358.25 317.5 358.25C317.5 357.75 295 348.63 295 330.26C295 323.63 300.04 318.25 306.25 318.25C312.46 318.25 317.5 322.96 317.5 329.6C317.5 322.96 322.54 318.25 328.75 318.25Z" id="a6QsD4NvFR"></path><path d="M332.63 324.33C334.41 325.78 336.07 327.85 337.63 330.54C337.85 327.29 336.68 324.67 334.13 322.67C331.57 320.67 328.52 320.22 324.96 321.33C328.29 321.89 330.85 322.89 332.63 324.33Z" id="c36VhVNGe"></path><path d="M309.63 323.33C311.96 324.44 313.63 325.73 314.63 327.21C314.63 324.96 313.41 323.22 310.96 322C308.52 320.78 305.74 320.56 302.63 321.33C304.96 321.56 307.29 322.22 309.63 323.33Z" id="b24OmcpvME"></path></defs><g><g><use xlink:href="#a6QsD4NvFR" opacity="1" fill="#ef3f58" fill-opacity="1"></use></g><g><use xlink:href="#c36VhVNGe" opacity="1" fill="#eff1ed" fill-opacity="1"></use></g><g><use xlink:href="#b24OmcpvME" opacity="1" fill="#eff1ed" fill-opacity="1"></use></g></g></svg>