<?xml version="1.0" encoding="UTF-8" standalone="no"?>
<!DOCTYPE svg PUBLIC "-//W3C//DTD SVG 1.1//EN" "http://www.w3.org/Graphics/SVG/1.1/DTD/svg11.dtd">
<svg version="1.1" xmlns="http://www.w3.org/2000/svg" xmlns:xlink="http://www.w3.org/1999/xlink" preserveAspectRatio="xMidYMid meet" viewBox="296.5 412.41950531933935 44 44" width="40" height="40"><defs><path d="M337.5 433.42C337.5 444.46 328.54 453.42 317.5 453.42C306.46 453.42 297.5 444.46 297.5 433.42C297.5 422.38 306.46 413.42 317.5 413.42C328.54 413.42 337.5 422.38 337.5 433.42Z" id="c1hCH8K7Ta"></path><path d="M307.83 434.87C307.01 434.12 306.38 434.06 305.96 434.67C305.53 435.28 305.66 435.94 306.36 436.65L313.72 443.53L328.49 427.99C329.37 427.28 329.52 426.6 328.94 425.96C328.36 425.32 327.64 425.48 326.8 426.44L313.72 440.43L307.83 434.87Z" id="a3iynCFsJX"></path></defs><g><g><use xlink:href="#c1hCH8K7Ta" opacity="1" fill="#6a7061" fill-opacity="1"></use></g><g><use xlink:href="#a3iynCFsJX" opacity="1" fill="#eff1ed" fill-opacity="1"></use></g></g></svg>