<?xml version="1.0" encoding="UTF-8" standalone="no"?>
<!DOCTYPE svg PUBLIC "-//W3C//DTD SVG 1.1//EN" "http://www.w3.org/Graphics/SVG/1.1/DTD/svg11.dtd">
<svg version="1.1" xmlns="http://www.w3.org/2000/svg" xmlns:xlink="http://www.w3.org/1999/xlink" preserveAspectRatio="xMidYMid meet" viewBox="343.8571428571429 412.41950531933935 44 44" width="40" height="40"><defs><path d="M384.86 433.42C384.86 444.46 375.9 453.42 364.86 453.42C353.82 453.42 344.86 444.46 344.86 433.42C344.86 422.38 353.82 413.42 364.86 413.42C375.9 413.42 384.86 422.38 384.86 433.42Z" id="h1rqSHVF2W"></path><path d="M359.12 426.6C358.49 426.08 357.96 426.12 357.53 426.74C357.11 427.35 357.15 427.89 357.65 428.37L365.02 435.26L371.78 428.37C372.58 427.75 372.69 427.12 372.11 426.48C371.52 425.84 370.95 425.88 370.38 426.6L365.02 432.15L359.12 426.6Z" id="bfKWGz85J"></path><path d="M359.12 440.82C358.49 441.34 357.96 441.3 357.53 440.68C357.11 440.07 357.15 439.52 357.65 439.05L365.02 432.16L371.78 439.05C372.58 439.67 372.69 440.3 372.11 440.94C371.52 441.58 370.95 441.54 370.38 440.82L365.02 435.27L359.12 440.82Z" id="d2EQghzRV0"></path></defs><g><g><use xlink:href="#h1rqSHVF2W" opacity="1" fill="#6a7062" fill-opacity="1"></use></g><g><use xlink:href="#bfKWGz85J" opacity="1" fill="#eff1ed" fill-opacity="1"></use></g><g><use xlink:href="#d2EQghzRV0" opacity="1" fill="#eff1ed" fill-opacity="1"></use></g></g></svg>