<?xml version="1.0" encoding="UTF-8" standalone="no"?>
<!DOCTYPE svg PUBLIC "-//W3C//DTD SVG 1.1//EN" "http://www.w3.org/Graphics/SVG/1.1/DTD/svg11.dtd">
<svg version="1.1" xmlns="http://www.w3.org/2000/svg" xmlns:xlink="http://www.w3.org/1999/xlink" preserveAspectRatio="xMidYMid meet" viewBox="343.8571428571429 366.7528386526726 44 44" width="40" height="40"><defs><path d="M384.86 387.75C384.86 398.79 375.9 407.75 364.86 407.75C353.82 407.75 344.86 398.79 344.86 387.75C344.86 376.71 353.82 367.75 364.86 367.75C375.9 367.75 384.86 376.71 384.86 387.75Z" id="a19flRF8p9"></path><path d="M359.12 380.93C358.49 380.41 357.96 380.46 357.53 381.07C357.11 381.68 357.15 382.23 357.65 382.71L365.02 389.59L371.78 382.71C372.58 382.09 372.69 381.45 372.11 380.81C371.52 380.17 370.95 380.21 370.38 380.93L365.02 386.48L359.12 380.93Z" id="b32oaFWhBz"></path><path d="M359.12 395.16C358.49 395.68 357.96 395.63 357.53 395.02C357.11 394.4 357.15 393.86 357.65 393.38L365.02 386.5L371.78 393.38C372.58 394 372.69 394.63 372.11 395.27C371.52 395.91 370.95 395.87 370.38 395.16L365.02 389.6L359.12 395.16Z" id="c30X3sgESn"></path></defs><g><g><use xlink:href="#a19flRF8p9" opacity="1" fill="#da0000" fill-opacity="1"></use></g><g><use xlink:href="#b32oaFWhBz" opacity="1" fill="#eff1ed" fill-opacity="1"></use></g><g><use xlink:href="#c30X3sgESn" opacity="1" fill="#eff1ed" fill-opacity="1"></use></g></g></svg>