<?xml version="1.0" encoding="UTF-8" standalone="no"?>
<!DOCTYPE svg PUBLIC "-//W3C//DTD SVG 1.1//EN" "http://www.w3.org/Graphics/SVG/1.1/DTD/svg11.dtd">
<svg version="1.1" xmlns="http://www.w3.org/2000/svg" xmlns:xlink="http://www.w3.org/1999/xlink" preserveAspectRatio="xMidYMid meet" viewBox="240.6431960847582 368.6443354343842 40.21700643657687 40.21700643657687" width="36.22" height="36.22"><defs><path d="M277.7 377.42L277.72 377.44L277.74 377.46L277.75 377.49L277.76 377.51L277.78 377.53L277.79 377.55L277.8 377.58L277.81 377.6L277.82 377.63L277.83 377.65L277.84 377.68L277.84 377.7L277.85 377.73L277.85 377.75L277.86 377.78L277.86 377.8L277.86 377.83L277.86 377.85L277.86 377.88L277.86 377.9L277.86 377.93L277.85 377.96L277.85 377.98L277.84 378.01L277.84 378.03L277.83 378.06L277.82 378.08L277.81 378.1L277.8 378.13L277.79 378.15L277.78 378.17L277.76 378.2L277.75 378.22L277.74 378.24L277.72 378.26L277.7 378.28L277.68 378.3L277.67 378.32L268.24 387.75L277.67 397.18L277.68 397.2L277.7 397.22L277.72 397.24L277.74 397.26L277.75 397.29L277.76 397.31L277.78 397.33L277.79 397.35L277.8 397.38L277.81 397.4L277.82 397.43L277.83 397.45L277.84 397.47L277.84 397.5L277.85 397.52L277.85 397.55L277.86 397.58L277.86 397.6L277.86 397.63L277.86 397.65L277.86 397.68L277.86 397.7L277.86 397.73L277.85 397.75L277.85 397.78L277.84 397.8L277.84 397.83L277.83 397.85L277.82 397.88L277.81 397.9L277.8 397.93L277.79 397.95L277.78 397.97L277.76 398L277.75 398.02L277.74 398.04L277.72 398.06L277.7 398.08L277.68 398.1L277.67 398.12L270.12 405.67L270.1 405.69L270.08 405.7L270.06 405.72L270.04 405.74L270.02 405.75L270 405.77L269.97 405.78L269.95 405.79L269.93 405.8L269.9 405.81L269.88 405.82L269.85 405.83L269.83 405.84L269.8 405.84L269.78 405.85L269.75 405.85L269.73 405.86L269.7 405.86L269.68 405.86L269.65 405.86L269.63 405.86L269.6 405.86L269.57 405.86L269.55 405.85L269.52 405.85L269.5 405.84L269.47 405.84L269.45 405.83L269.42 405.82L269.4 405.81L269.38 405.8L269.35 405.79L269.33 405.78L269.31 405.77L269.28 405.75L269.26 405.74L269.24 405.72L269.22 405.7L269.2 405.69L269.18 405.67L259.75 396.24L250.32 405.67L250.3 405.69L250.28 405.7L250.26 405.72L250.24 405.74L250.22 405.75L250.2 405.77L250.17 405.78L250.15 405.79L250.13 405.8L250.1 405.81L250.08 405.82L250.05 405.83L250.03 405.84L250 405.84L249.98 405.85L249.95 405.85L249.93 405.86L249.9 405.86L249.88 405.86L249.85 405.86L249.83 405.86L249.8 405.86L249.78 405.86L249.75 405.85L249.72 405.85L249.7 405.84L249.67 405.84L249.65 405.83L249.63 405.82L249.6 405.81L249.58 405.8L249.55 405.79L249.53 405.78L249.51 405.77L249.49 405.75L249.46 405.74L249.44 405.72L249.42 405.7L249.4 405.69L249.38 405.67L241.84 398.12L241.82 398.1L241.8 398.08L241.78 398.06L241.77 398.04L241.75 398.02L241.74 398L241.73 397.97L241.71 397.95L241.7 397.93L241.69 397.9L241.68 397.88L241.67 397.85L241.67 397.83L241.66 397.8L241.66 397.78L241.65 397.75L241.65 397.73L241.65 397.7L241.64 397.68L241.64 397.65L241.64 397.63L241.65 397.6L241.65 397.58L241.65 397.55L241.66 397.52L241.66 397.5L241.67 397.47L241.67 397.45L241.68 397.43L241.69 397.4L241.7 397.38L241.71 397.35L241.73 397.33L241.74 397.31L241.75 397.29L241.77 397.26L241.78 397.24L241.8 397.22L241.82 397.2L241.84 397.18L251.27 387.75L241.84 378.32L241.82 378.3L241.8 378.28L241.78 378.26L241.77 378.24L241.75 378.22L241.74 378.2L241.73 378.17L241.71 378.15L241.7 378.13L241.69 378.1L241.68 378.08L241.67 378.06L241.67 378.03L241.66 378.01L241.66 377.98L241.65 377.96L241.65 377.93L241.65 377.9L241.64 377.88L241.64 377.85L241.64 377.83L241.65 377.8L241.65 377.78L241.65 377.75L241.66 377.73L241.66 377.7L241.67 377.68L241.67 377.65L241.68 377.63L241.69 377.6L241.7 377.58L241.71 377.55L241.73 377.53L241.74 377.51L241.75 377.49L241.77 377.46L241.78 377.44L241.8 377.42L241.82 377.4L241.84 377.38L249.38 369.84L249.4 369.82L249.42 369.8L249.44 369.79L249.46 369.77L249.49 369.75L249.51 369.74L249.53 369.73L249.55 369.71L249.58 369.7L249.6 369.69L249.63 369.68L249.65 369.68L249.67 369.67L249.7 369.66L249.72 369.66L249.75 369.65L249.78 369.65L249.8 369.65L249.83 369.64L249.85 369.64L249.88 369.64L249.9 369.65L249.93 369.65L249.95 369.65L249.98 369.66L250 369.66L250.03 369.67L250.05 369.68L250.08 369.68L250.1 369.69L250.13 369.7L250.15 369.71L250.17 369.73L250.2 369.74L250.22 369.75L250.24 369.77L250.26 369.79L250.28 369.8L250.3 369.82L250.32 369.84L259.75 379.27L269.18 369.84L269.2 369.82L269.22 369.8L269.24 369.79L269.26 369.77L269.28 369.75L269.31 369.74L269.33 369.73L269.35 369.71L269.38 369.7L269.4 369.69L269.42 369.68L269.45 369.68L269.47 369.67L269.5 369.66L269.52 369.66L269.55 369.65L269.57 369.65L269.6 369.65L269.63 369.64L269.65 369.64L269.68 369.64L269.7 369.65L269.73 369.65L269.75 369.65L269.78 369.66L269.8 369.66L269.83 369.67L269.85 369.68L269.88 369.68L269.9 369.69L269.93 369.7L269.95 369.71L269.97 369.73L270 369.74L270.02 369.75L270.04 369.77L270.06 369.79L270.08 369.8L270.1 369.82L270.12 369.84L277.67 377.38L277.68 377.4L277.7 377.42Z" id="cOQf4313A"></path></defs><g><g><use xlink:href="#cOQf4313A" opacity="1" fill="#671514" fill-opacity="1"></use></g></g></svg>