<?xml version="1.0" encoding="UTF-8" standalone="no"?>
<!DOCTYPE svg PUBLIC "-//W3C//DTD SVG 1.1//EN" "http://www.w3.org/Graphics/SVG/1.1/DTD/svg11.dtd">
<svg version="1.1" xmlns="http://www.w3.org/2000/svg" xmlns:xlink="http://www.w3.org/1999/xlink" preserveAspectRatio="xMidYMid meet" viewBox="238.75169930304662 317.2528386526726 44 44" width="40" height="40"><defs><path d="M265.14 318.26L265.17 318.26L265.19 318.26L265.22 318.27L265.25 318.27L265.27 318.28L265.3 318.29L265.32 318.3L265.34 318.31L265.37 318.32L265.39 318.33L265.41 318.34L265.44 318.35L265.46 318.37L265.48 318.38L265.5 318.4L265.52 318.41L265.54 318.43L265.56 318.45L265.57 318.47L265.59 318.49L265.61 318.51L265.62 318.53L265.64 318.55L265.65 318.57L265.66 318.59L265.68 318.61L265.69 318.64L265.7 318.66L265.71 318.68L265.72 318.71L265.73 318.73L265.73 318.76L265.74 318.79L265.74 318.81L265.75 318.84L265.75 318.86L265.75 318.89L265.75 318.92L265.75 332.25L279.09 332.25L279.11 332.25L279.14 332.26L279.17 332.26L279.19 332.26L279.22 332.27L279.25 332.27L279.27 332.28L279.3 332.29L279.32 332.3L279.34 332.31L279.37 332.32L279.39 332.33L279.41 332.34L279.44 332.35L279.46 332.37L279.48 332.38L279.5 332.4L279.52 332.41L279.54 332.43L279.56 332.45L279.57 332.47L279.59 332.49L279.61 332.51L279.62 332.53L279.64 332.55L279.65 332.57L279.66 332.59L279.68 332.61L279.69 332.64L279.7 332.66L279.71 332.68L279.72 332.71L279.73 332.73L279.73 332.76L279.74 332.79L279.74 332.81L279.75 332.84L279.75 332.86L279.75 332.89L279.75 332.92L279.75 343.59L279.75 343.61L279.75 343.64L279.75 343.67L279.74 343.69L279.74 343.72L279.73 343.75L279.73 343.77L279.72 343.8L279.71 343.82L279.7 343.85L279.69 343.87L279.68 343.89L279.66 343.92L279.65 343.94L279.64 343.96L279.62 343.98L279.61 344L279.59 344.02L279.57 344.04L279.56 344.06L279.54 344.08L279.52 344.09L279.5 344.11L279.48 344.12L279.46 344.14L279.44 344.15L279.41 344.17L279.39 344.18L279.37 344.19L279.34 344.2L279.32 344.21L279.3 344.22L279.27 344.23L279.25 344.23L279.22 344.24L279.19 344.24L279.17 344.25L279.14 344.25L279.11 344.25L279.09 344.25L265.75 344.25L265.75 357.59L265.75 357.61L265.75 357.64L265.75 357.67L265.74 357.69L265.74 357.72L265.73 357.75L265.73 357.77L265.72 357.8L265.71 357.82L265.7 357.85L265.69 357.87L265.68 357.89L265.66 357.92L265.65 357.94L265.64 357.96L265.62 357.98L265.61 358L265.59 358.02L265.57 358.04L265.56 358.06L265.54 358.08L265.52 358.09L265.5 358.11L265.48 358.12L265.46 358.14L265.44 358.15L265.41 358.17L265.39 358.18L265.37 358.19L265.34 358.2L265.32 358.21L265.3 358.22L265.27 358.23L265.25 358.23L265.22 358.24L265.19 358.24L265.17 358.25L265.14 358.25L265.11 358.25L265.09 358.25L254.42 358.25L254.39 358.25L254.36 358.25L254.34 358.25L254.31 358.24L254.28 358.24L254.26 358.23L254.23 358.23L254.21 358.22L254.18 358.21L254.16 358.2L254.14 358.19L254.11 358.18L254.09 358.17L254.07 358.15L254.05 358.14L254.02 358.12L254 358.11L253.98 358.09L253.97 358.08L253.95 358.06L253.93 358.04L253.91 358.02L253.9 358L253.88 357.98L253.87 357.96L253.85 357.94L253.84 357.92L253.83 357.89L253.81 357.87L253.8 357.85L253.79 357.82L253.79 357.8L253.78 357.77L253.77 357.75L253.77 357.72L253.76 357.69L253.76 357.67L253.75 357.64L253.75 357.61L253.75 357.59L253.75 344.25L240.42 344.25L240.39 344.25L240.36 344.25L240.34 344.25L240.31 344.24L240.28 344.24L240.26 344.23L240.23 344.23L240.21 344.22L240.18 344.21L240.16 344.2L240.14 344.19L240.11 344.18L240.09 344.17L240.07 344.15L240.05 344.14L240.02 344.12L240 344.11L239.98 344.09L239.97 344.08L239.95 344.06L239.93 344.04L239.91 344.02L239.9 344L239.88 343.98L239.87 343.96L239.85 343.94L239.84 343.92L239.83 343.89L239.81 343.87L239.8 343.85L239.79 343.82L239.79 343.8L239.78 343.77L239.77 343.75L239.77 343.72L239.76 343.69L239.76 343.67L239.75 343.64L239.75 343.61L239.75 343.59L239.75 332.92L239.75 332.89L239.75 332.86L239.76 332.84L239.76 332.81L239.77 332.79L239.77 332.76L239.78 332.73L239.79 332.71L239.79 332.68L239.8 332.66L239.81 332.64L239.83 332.61L239.84 332.59L239.85 332.57L239.87 332.55L239.88 332.53L239.9 332.51L239.91 332.49L239.93 332.47L239.95 332.45L239.97 332.43L239.98 332.41L240 332.4L240.02 332.38L240.05 332.37L240.07 332.35L240.09 332.34L240.11 332.33L240.14 332.32L240.16 332.31L240.18 332.3L240.21 332.29L240.23 332.28L240.26 332.27L240.28 332.27L240.31 332.26L240.34 332.26L240.36 332.26L240.39 332.25L240.42 332.25L253.75 332.25L253.75 318.92L253.75 318.89L253.75 318.86L253.76 318.84L253.76 318.81L253.77 318.79L253.77 318.76L253.78 318.73L253.79 318.71L253.79 318.68L253.8 318.66L253.81 318.64L253.83 318.61L253.84 318.59L253.85 318.57L253.87 318.55L253.88 318.53L253.9 318.51L253.91 318.49L253.93 318.47L253.95 318.45L253.97 318.43L253.98 318.41L254 318.4L254.02 318.38L254.05 318.37L254.07 318.35L254.09 318.34L254.11 318.33L254.14 318.32L254.16 318.31L254.18 318.3L254.21 318.29L254.23 318.28L254.26 318.27L254.28 318.27L254.31 318.26L254.34 318.26L254.36 318.26L254.39 318.25L254.42 318.25L265.09 318.25L265.11 318.25L265.14 318.26Z" id="b1Z7Ol29fz"></path></defs><g><g><use xlink:href="#b1Z7Ol29fz" opacity="1" fill="#eff1ed" fill-opacity="1"></use></g></g></svg>