<?xml version="1.0" encoding="UTF-8" standalone="no"?>
<!DOCTYPE svg PUBLIC "-//W3C//DTD SVG 1.1//EN" "http://www.w3.org/Graphics/SVG/1.1/DTD/svg11.dtd">
<svg version="1.1" xmlns="http://www.w3.org/2000/svg" xmlns:xlink="http://www.w3.org/1999/xlink" preserveAspectRatio="xMidYMid meet" viewBox="296.5 366.7528386526726 44 44" width="40" height="40"><defs><path d="M337.5 387.75C337.5 398.79 328.54 407.75 317.5 407.75C306.46 407.75 297.5 398.79 297.5 387.75C297.5 376.71 306.46 367.75 317.5 367.75C328.54 367.75 337.5 376.71 337.5 387.75Z" id="g1MhiSJTcD"></path><path d="M307.83 389.21C307.01 388.46 306.38 388.39 305.96 389C305.53 389.62 305.66 390.28 306.36 390.98L313.72 397.87L328.49 382.32C329.37 381.61 329.52 380.93 328.94 380.29C328.36 379.65 327.64 379.81 326.8 380.77L313.72 394.76L307.83 389.21Z" id="d36nYe0J8"></path></defs><g><g><use xlink:href="#g1MhiSJTcD" opacity="1" fill="#04c200" fill-opacity="1"></use></g><g><use xlink:href="#d36nYe0J8" opacity="1" fill="#eff1ed" fill-opacity="1"></use></g></g></svg>