<?xml version="1.0" encoding="UTF-8" standalone="no"?>
<!DOCTYPE svg PUBLIC "-//W3C//DTD SVG 1.1//EN" "http://www.w3.org/Graphics/SVG/1.1/DTD/svg11.dtd">
<svg version="1.1" xmlns="http://www.w3.org/2000/svg" xmlns:xlink="http://www.w3.org/1999/xlink" preserveAspectRatio="xMidYMid meet" viewBox="356.87639831285526 317.2528386526725 44.00000000000006 44.000000000000114" width="40" height="40"><defs><path d="M387.88 318.25C393.4 318.25 397.88 322.73 397.88 328.25C397.88 334.25 397.88 342.25 397.88 348.25C397.88 353.78 393.4 358.25 387.88 358.25C381.88 358.25 373.88 358.25 367.88 358.25C362.35 358.25 357.88 353.78 357.88 348.25C357.88 342.25 357.88 334.25 357.88 328.25C357.88 322.73 362.35 318.25 367.88 318.25C373.88 318.25 381.88 318.25 387.88 318.25Z" id="b1SSREmNm"></path><path d="M387.59 328.47C388.73 328.47 389.66 329.39 389.66 330.54C389.66 330.95 389.66 330.12 389.66 330.54C389.66 331.68 388.73 332.61 387.59 332.61C383.29 332.61 372.46 332.61 368.16 332.61C367.02 332.61 366.09 331.68 366.09 330.54C366.09 330.12 366.09 330.95 366.09 330.54C366.09 329.39 367.02 328.47 368.16 328.47C372.46 328.47 383.29 328.47 387.59 328.47Z" id="a2T7zZHrbJ"></path><path d="M387.59 343.9C388.73 343.9 389.66 344.82 389.66 345.97C389.66 346.38 389.66 345.55 389.66 345.97C389.66 347.11 388.73 348.04 387.59 348.04C383.29 348.04 372.46 348.04 368.16 348.04C367.02 348.04 366.09 347.11 366.09 345.97C366.09 345.55 366.09 346.38 366.09 345.97C366.09 344.82 367.02 343.9 368.16 343.9C372.46 343.9 383.29 343.9 387.59 343.9Z" id="k5pJGPdoq"></path><path d="M387.59 336.11C388.73 336.11 389.66 337.04 389.66 338.18C389.66 338.6 389.66 337.77 389.66 338.18C389.66 339.33 388.73 340.25 387.59 340.25C383.29 340.25 372.46 340.25 368.16 340.25C367.02 340.25 366.09 339.33 366.09 338.18C366.09 337.77 366.09 338.6 366.09 338.18C366.09 337.04 367.02 336.11 368.16 336.11C372.46 336.11 383.29 336.11 387.59 336.11Z" id="b15DG7naUZ"></path></defs><g><g><use xlink:href="#b1SSREmNm" opacity="1" fill="#eff1ed" fill-opacity="1"></use><g><use xlink:href="#b1SSREmNm" opacity="1" fill-opacity="0" stroke="#ef3f58" stroke-width="1" stroke-opacity="1"></use></g></g><g><use xlink:href="#a2T7zZHrbJ" opacity="1" fill="#ef3f58" fill-opacity="1"></use></g><g><use xlink:href="#k5pJGPdoq" opacity="1" fill="#ef3f58" fill-opacity="1"></use></g><g><use xlink:href="#b15DG7naUZ" opacity="1" fill="#ef3f58" fill-opacity="1"></use></g></g></svg>