<?xml version="1.0" encoding="UTF-8" standalone="no"?>
<!DOCTYPE svg PUBLIC "-//W3C//DTD SVG 1.1//EN" "http://www.w3.org/Graphics/SVG/1.1/DTD/svg11.dtd">
<svg version="1.1" xmlns="http://www.w3.org/2000/svg" xmlns:xlink="http://www.w3.org/1999/xlink" preserveAspectRatio="xMidYMid meet" viewBox="356.87639831285526 317.2528386526725 44.00000000000006 44.000000000000114" width="40" height="40"><defs><path d="M387.88 318.25C393.4 318.25 397.88 322.73 397.88 328.25C397.88 334.25 397.88 342.25 397.88 348.25C397.88 353.78 393.4 358.25 387.88 358.25C381.88 358.25 373.88 358.25 367.88 358.25C362.35 358.25 357.88 353.78 357.88 348.25C357.88 342.25 357.88 334.25 357.88 328.25C357.88 322.73 362.35 318.25 367.88 318.25C373.88 318.25 381.88 318.25 387.88 318.25Z" id="bxkdi69ws"></path><path d="M388.16 329.04C388.99 329.04 389.66 329.71 389.66 330.54C389.66 330.84 389.66 330.24 389.66 330.54C389.66 331.37 388.99 332.04 388.16 332.04C383.75 332.04 372 332.04 367.59 332.04C366.76 332.04 366.09 331.37 366.09 330.54C366.09 330.24 366.09 330.84 366.09 330.54C366.09 329.71 366.76 329.04 367.59 329.04C372 329.04 383.75 329.04 388.16 329.04Z" id="i1neLut0di"></path><path d="M388.16 336.68C388.99 336.68 389.66 337.35 389.66 338.18C389.66 338.48 389.66 337.88 389.66 338.18C389.66 339.01 388.99 339.68 388.16 339.68C383.75 339.68 372 339.68 367.59 339.68C366.76 339.68 366.09 339.01 366.09 338.18C366.09 337.88 366.09 338.48 366.09 338.18C366.09 337.35 366.76 336.68 367.59 336.68C372 336.68 383.75 336.68 388.16 336.68Z" id="b1k2jDgkxL"></path><path d="M388.16 344.47C388.99 344.47 389.66 345.14 389.66 345.97C389.66 346.27 389.66 345.67 389.66 345.97C389.66 346.8 388.99 347.47 388.16 347.47C383.75 347.47 372 347.47 367.59 347.47C366.76 347.47 366.09 346.8 366.09 345.97C366.09 345.67 366.09 346.27 366.09 345.97C366.09 345.14 366.76 344.47 367.59 344.47C372 344.47 383.75 344.47 388.16 344.47Z" id="c4cqSi7hfq"></path></defs><g><g><use xlink:href="#bxkdi69ws" opacity="1" fill="#ef3f58" fill-opacity="1"></use></g><g><use xlink:href="#i1neLut0di" opacity="1" fill="#eff1ed" fill-opacity="1"></use></g><g><use xlink:href="#b1k2jDgkxL" opacity="1" fill="#eff1ed" fill-opacity="1"></use></g><g><use xlink:href="#c4cqSi7hfq" opacity="1" fill="#eff1ed" fill-opacity="1"></use></g></g></svg>