<?xml version="1.0" encoding="UTF-8" standalone="no" ?>
<!DOCTYPE svg PUBLIC "-//W3C//DTD SVG 1.1//EN" "http://www.w3.org/Graphics/SVG/1.1/DTD/svg11.dtd">
<svg xmlns="http://www.w3.org/2000/svg" xmlns:xlink="http://www.w3.org/1999/xlink" version="1.1" width="500" height="500" viewBox="0 0 500 500" xml:space="preserve">
<desc>Created with Fabric.js 5.3.0</desc>
<defs>
</defs>
<g transform="matrix(13.7545572831 0 0 13.7545572831 249.8650107991 249.8650107991)" id="Zkjjw1qLeH3ZpZpUjtNFz"  >
<path style="stroke: none; stroke-width: 1; stroke-dasharray: none; stroke-linecap: butt; stroke-dashoffset: 0; stroke-linejoin: miter; stroke-miterlimit: 4; fill: rgb(240,3,0); fill-rule: nonzero; opacity: 1;" vector-effect="non-scaling-stroke"  transform=" translate(-259.75, -387.75)" d="M 277.7 377.42 L 277.72 377.44 L 277.74 377.46 L 277.75 377.49 L 277.76 377.51 L 277.78 377.53 L 277.79 377.55 L 277.8 377.58 L 277.81 377.6 L 277.82 377.63 L 277.83 377.65 L 277.84 377.68 L 277.84 377.7 L 277.85 377.73 L 277.85 377.75 L 277.86 377.78 L 277.86 377.8 L 277.86 377.83 L 277.86 377.85 L 277.86 377.88 L 277.86 377.9 L 277.86 377.93 L 277.85 377.96 L 277.85 377.98 L 277.84 378.01 L 277.84 378.03 L 277.83 378.06 L 277.82 378.08 L 277.81 378.1 L 277.8 378.13 L 277.79 378.15 L 277.78 378.17 L 277.76 378.2 L 277.75 378.22 L 277.74 378.24 L 277.72 378.26 L 277.7 378.28 L 277.68 378.3 L 277.67 378.32 L 268.24 387.75 L 277.67 397.18 L 277.68 397.2 L 277.7 397.22 L 277.72 397.24 L 277.74 397.26 L 277.75 397.29 L 277.76 397.31 L 277.78 397.33 L 277.79 397.35 L 277.8 397.38 L 277.81 397.4 L 277.82 397.43 L 277.83 397.45 L 277.84 397.47 L 277.84 397.5 L 277.85 397.52 L 277.85 397.55 L 277.86 397.58 L 277.86 397.6 L 277.86 397.63 L 277.86 397.65 L 277.86 397.68 L 277.86 397.7 L 277.86 397.73 L 277.85 397.75 L 277.85 397.78 L 277.84 397.8 L 277.84 397.83 L 277.83 397.85 L 277.82 397.88 L 277.81 397.9 L 277.8 397.93 L 277.79 397.95 L 277.78 397.97 L 277.76 398 L 277.75 398.02 L 277.74 398.04 L 277.72 398.06 L 277.7 398.08 L 277.68 398.1 L 277.67 398.12 L 270.12 405.67 L 270.1 405.69 L 270.08 405.7 L 270.06 405.72 L 270.04 405.74 L 270.02 405.75 L 270 405.77 L 269.97 405.78 L 269.95 405.79 L 269.93 405.8 L 269.9 405.81 L 269.88 405.82 L 269.85 405.83 L 269.83 405.84 L 269.8 405.84 L 269.78 405.85 L 269.75 405.85 L 269.73 405.86 L 269.7 405.86 L 269.68 405.86 L 269.65 405.86 L 269.63 405.86 L 269.6 405.86 L 269.57 405.86 L 269.55 405.85 L 269.52 405.85 L 269.5 405.84 L 269.47 405.84 L 269.45 405.83 L 269.42 405.82 L 269.4 405.81 L 269.38 405.8 L 269.35 405.79 L 269.33 405.78 L 269.31 405.77 L 269.28 405.75 L 269.26 405.74 L 269.24 405.72 L 269.22 405.7 L 269.2 405.69 L 269.18 405.67 L 259.75 396.24 L 250.32 405.67 L 250.3 405.69 L 250.28 405.7 L 250.26 405.72 L 250.24 405.74 L 250.22 405.75 L 250.2 405.77 L 250.17 405.78 L 250.15 405.79 L 250.13 405.8 L 250.1 405.81 L 250.08 405.82 L 250.05 405.83 L 250.03 405.84 L 250 405.84 L 249.98 405.85 L 249.95 405.85 L 249.93 405.86 L 249.9 405.86 L 249.88 405.86 L 249.85 405.86 L 249.83 405.86 L 249.8 405.86 L 249.78 405.86 L 249.75 405.85 L 249.72 405.85 L 249.7 405.84 L 249.67 405.84 L 249.65 405.83 L 249.63 405.82 L 249.6 405.81 L 249.58 405.8 L 249.55 405.79 L 249.53 405.78 L 249.51 405.77 L 249.49 405.75 L 249.46 405.74 L 249.44 405.72 L 249.42 405.7 L 249.4 405.69 L 249.38 405.67 L 241.84 398.12 L 241.82 398.1 L 241.8 398.08 L 241.78 398.06 L 241.77 398.04 L 241.75 398.02 L 241.74 398 L 241.73 397.97 L 241.71 397.95 L 241.7 397.93 L 241.69 397.9 L 241.68 397.88 L 241.67 397.85 L 241.67 397.83 L 241.66 397.8 L 241.66 397.78 L 241.65 397.75 L 241.65 397.73 L 241.65 397.7 L 241.64 397.68 L 241.64 397.65 L 241.64 397.63 L 241.65 397.6 L 241.65 397.58 L 241.65 397.55 L 241.66 397.52 L 241.66 397.5 L 241.67 397.47 L 241.67 397.45 L 241.68 397.43 L 241.69 397.4 L 241.7 397.38 L 241.71 397.35 L 241.73 397.33 L 241.74 397.31 L 241.75 397.29 L 241.77 397.26 L 241.78 397.24 L 241.8 397.22 L 241.82 397.2 L 241.84 397.18 L 251.27 387.75 L 241.84 378.32 L 241.82 378.3 L 241.8 378.28 L 241.78 378.26 L 241.77 378.24 L 241.75 378.22 L 241.74 378.2 L 241.73 378.17 L 241.71 378.15 L 241.7 378.13 L 241.69 378.1 L 241.68 378.08 L 241.67 378.06 L 241.67 378.03 L 241.66 378.01 L 241.66 377.98 L 241.65 377.96 L 241.65 377.93 L 241.65 377.9 L 241.64 377.88 L 241.64 377.85 L 241.64 377.83 L 241.65 377.8 L 241.65 377.78 L 241.65 377.75 L 241.66 377.73 L 241.66 377.7 L 241.67 377.68 L 241.67 377.65 L 241.68 377.63 L 241.69 377.6 L 241.7 377.58 L 241.71 377.55 L 241.73 377.53 L 241.74 377.51 L 241.75 377.49 L 241.77 377.46 L 241.78 377.44 L 241.8 377.42 L 241.82 377.4 L 241.84 377.38 L 249.38 369.84 L 249.4 369.82 L 249.42 369.8 L 249.44 369.79 L 249.46 369.77 L 249.49 369.75 L 249.51 369.74 L 249.53 369.73 L 249.55 369.71 L 249.58 369.7 L 249.6 369.69 L 249.63 369.68 L 249.65 369.68 L 249.67 369.67 L 249.7 369.66 L 249.72 369.66 L 249.75 369.65 L 249.78 369.65 L 249.8 369.65 L 249.83 369.64 L 249.85 369.64 L 249.88 369.64 L 249.9 369.65 L 249.93 369.65 L 249.95 369.65 L 249.98 369.66 L 250 369.66 L 250.03 369.67 L 250.05 369.68 L 250.08 369.68 L 250.1 369.69 L 250.13 369.7 L 250.15 369.71 L 250.17 369.73 L 250.2 369.74 L 250.22 369.75 L 250.24 369.77 L 250.26 369.79 L 250.28 369.8 L 250.3 369.82 L 250.32 369.84 L 259.75 379.27 L 269.18 369.84 L 269.2 369.82 L 269.22 369.8 L 269.24 369.79 L 269.26 369.77 L 269.28 369.75 L 269.31 369.74 L 269.33 369.73 L 269.35 369.71 L 269.38 369.7 L 269.4 369.69 L 269.42 369.68 L 269.45 369.68 L 269.47 369.67 L 269.5 369.66 L 269.52 369.66 L 269.55 369.65 L 269.57 369.65 L 269.6 369.65 L 269.63 369.64 L 269.65 369.64 L 269.68 369.64 L 269.7 369.65 L 269.73 369.65 L 269.75 369.65 L 269.78 369.66 L 269.8 369.66 L 269.83 369.67 L 269.85 369.68 L 269.88 369.68 L 269.9 369.69 L 269.93 369.7 L 269.95 369.71 L 269.97 369.73 L 270 369.74 L 270.02 369.75 L 270.04 369.77 L 270.06 369.79 L 270.08 369.8 L 270.1 369.82 L 270.12 369.84 L 277.67 377.38 L 277.68 377.4 L 277.7 377.42 Z" stroke-linecap="round" />
</g>
</svg>